<svg fill="none" viewBox="0 0 24 24" xmlns="http://www.w3.org/2000/svg"><title>Ollama</title><path fill="#ffffff" d="M7.2 2.3c1.2 0 2.2 1 2.2 2.2v1.2h5.2V4.5a2.2 2.2 0 1 1 4.4 0v3.1c1.2 1.4 1.9 3.2 1.9 5.3V20c0 1.1-.9 2-2 2H5.1a2 2 0 0 1-2-2v-7.1c0-2.1.7-3.9 1.9-5.3V4.5c0-1.2 1-2.2 2.2-2.2Zm0 2a.2.2 0 0 0-.2.2v1.6c.2-.1.3-.1.5-.2V4.5a.2.2 0 0 0-.3-.2Zm9.6 0a.2.2 0 0 0-.2.2v1.4l.5.2V4.5a.2.2 0 0 0-.3-.2ZM8.7 7.7a3.6 3.6 0 0 0-3.6 3.6V20h13.8v-8.7a3.6 3.6 0 0 0-3.6-3.6H8.7Zm.3 3.2a1.1 1.1 0 1 1 0 2.2 1.1 1.1 0 0 1 0-2.2Zm6 0a1.1 1.1 0 1 1 0 2.2 1.1 1.1 0 0 1 0-2.2Zm-7 4.4h8v2H8v-2Z"/></svg>
